<svg xmlns="http://www.w3.org/2000/svg" xmlns:xlink="http://www.w3.org/1999/xlink" version="1.1" x="0px" y="0px" viewBox="0 0 100 125" style="enable-background:new 0 0 100 100;" xml:space="preserve"><g><path d="M16.3,47.7h-11c-0.9,0-1.6,0.7-1.6,1.6c0,0.9,0.7,1.6,1.6,1.6h11c0.9,0,1.6-0.7,1.6-1.6C17.9,48.4,17.2,47.7,16.3,47.7z"/><path d="M94.7,47.7h-11c-0.9,0-1.6,0.7-1.6,1.6c0,0.9,0.7,1.6,1.6,1.6h11c0.9,0,1.6-0.7,1.6-1.6C96.3,48.4,95.6,47.7,94.7,47.7z"/><path d="M82.7,18.7c0.6-0.6,0.6-1.6,0-2.2c-0.6-0.6-1.6-0.6-2.2,0l-7.8,7.8c-0.6,0.6-0.6,1.6,0,2.2c0.3,0.3,0.7,0.5,1.1,0.5   c0.4,0,0.8-0.2,1.1-0.5L82.7,18.7z"/><path d="M26.2,27c0.4,0,0.8-0.2,1.1-0.5c0.6-0.6,0.6-1.6,0-2.2l-7.8-7.8c-0.6-0.6-1.6-0.6-2.2,0c-0.6,0.6-0.6,1.6,0,2.2l7.8,7.8   C25.4,26.8,25.8,27,26.2,27z"/><path d="M48.4,4.5v11c0,0.9,0.7,1.6,1.6,1.6s1.6-0.7,1.6-1.6v-11C51.6,3.7,50.9,3,50,3S48.4,3.7,48.4,4.5z"/><path d="M65.9,30.7c-5.1-4.5-11.9-6.7-18.8-5.9c-11.9,1.4-21.1,11.9-21,23.9c0.1,7,3.4,11.6,6.9,16.5c1.1,1.5,2.2,3.1,3.3,4.8   c0.1,0.2,0.3,0.6,0.4,2.1c0.1,0.8,0.7,1.4,1.6,1.4h23.6c0.8,0,1.5-0.6,1.6-1.4c0.1-1.5,0.3-1.9,0.4-2.1c1-1.7,2.2-3.3,3.3-4.8   c3.5-5,6.9-9.7,6.9-16.7C73.9,41.7,71,35.2,65.9,30.7z M57,58.7h-5.4v9.5c0,0.9-0.7,1.6-1.6,1.6s-1.6-0.7-1.6-1.6v-9.5H43   c-0.9,0-1.6-0.7-1.6-1.6s0.7-1.6,1.6-1.6h14c0.9,0,1.6,0.7,1.6,1.6S57.9,58.7,57,58.7z M57,52.4H43c-0.9,0-1.6-0.7-1.6-1.6   s0.7-1.6,1.6-1.6h14c0.9,0,1.6,0.7,1.6,1.6S57.9,52.4,57,52.4z"/><path d="M40,81.4h20c1.7,0,3.1-1.4,3.1-3.1s-1.4-3.1-3.1-3.1H40c-1.7,0-3.1,1.4-3.1,3.1S38.3,81.4,40,81.4z"/><path d="M40,89.2h20c1.7,0,3.1-1.4,3.1-3.1S61.7,83,60,83H40c-1.7,0-3.1,1.4-3.1,3.1S38.3,89.2,40,89.2z"/><path d="M58.1,93.9c0-1.7-1.4-3.1-3.1-3.1H45c-1.7,0-3.1,1.4-3.1,3.1S43.3,97,45,97h10C56.7,97,58.1,95.6,58.1,93.9z"/></g><text x="0" y="115" fill="#000000" font-size="5px" font-weight="bold" font-family="'Helvetica Neue', Helvetica, Arial-Unicode, Arial, Sans-serif">Created by mikicon</text><text x="0" y="120" fill="#000000" font-size="5px" font-weight="bold" font-family="'Helvetica Neue', Helvetica, Arial-Unicode, Arial, Sans-serif">from the Noun Project</text></svg>